<?xml version="1.0" ?><!DOCTYPE svg  PUBLIC '-//W3C//DTD SVG 1.1//EN'  'http://www.w3.org/Graphics/SVG/1.1/DTD/svg11.dtd'><svg enable-background="new 0 0 100 100" height="100px" id="Layer_1" version="1.1" viewBox="0 0 100 100" width="100px" xml:space="preserve" xmlns="http://www.w3.org/2000/svg" xmlns:xlink="http://www.w3.org/1999/xlink"><g><path d="M49.681,95.985c25.352,0,45.977-20.625,45.977-45.978S75.032,4.03,49.681,4.03   c-25.353,0-45.979,20.625-45.979,45.978S24.328,95.985,49.681,95.985z M49.681,6.03c24.249,0,43.977,19.728,43.977,43.978   S73.93,93.985,49.681,93.985c-24.25,0-43.979-19.728-43.979-43.978S25.431,6.03,49.681,6.03z" fill="#F87F14"/><path d="M41.476,45.4h8.029c2.082,0,3.775-1.688,3.775-3.762c0-2.072-1.693-3.758-3.775-3.758h-8.029   c-2.08,0-3.772,1.686-3.772,3.758C37.703,43.712,39.396,45.4,41.476,45.4z M41.476,39.88h8.029c0.979,0,1.775,0.789,1.775,1.758   c0,0.971-0.797,1.762-1.775,1.762h-8.029c-0.978,0-1.772-0.791-1.772-1.762C39.703,40.669,40.498,39.88,41.476,39.88z" fill="#F87F14"/><path d="M41.476,61.901h16.315c2.074,0,3.762-1.681,3.762-3.746c0-2.066-1.688-3.748-3.762-3.748H41.476   c-2.08,0-3.772,1.681-3.772,3.748C37.703,60.221,39.396,61.901,41.476,61.901z M41.476,56.408h16.315   c0.972,0,1.762,0.784,1.762,1.748c0,0.946-0.807,1.746-1.762,1.746H41.476c-0.961,0-1.772-0.8-1.772-1.746   C39.703,57.192,40.498,56.408,41.476,56.408z" fill="#F87F14"/><path d="M41.292,73.783h16.64c8.491,0,15.438-6.913,15.485-15.408l0.087-11.667c0.001-0.07-0.007-0.14-0.021-0.209   l-0.131-0.635c-0.017-0.08-0.043-0.158-0.079-0.232l-0.385-0.798c-0.066-0.14-0.166-0.262-0.288-0.356l-0.642-0.497   c-0.604-0.474-1.544-0.519-3.153-0.557c-0.936-0.022-2.678-0.064-3.038-0.391c-0.488-0.447-0.635-1.542-0.821-2.929l-0.05-0.369   c-0.397-3.068-0.678-3.747-1.18-4.774l-0.205-0.43c-2.174-4.596-7.908-7.959-11.976-8.439c-0.039-0.004-0.078-0.007-0.117-0.007   H41.292c-8.538,0-15.484,6.926-15.484,15.438v16.844C25.808,66.867,32.754,73.783,41.292,73.783z M27.808,41.523   c0-7.41,6.049-13.438,13.484-13.438h10.066c3.549,0.445,8.533,3.47,10.342,7.293c0.078,0.169,0.15,0.318,0.22,0.46   c0.387,0.791,0.619,1.269,0.994,4.16l0.051,0.371c0.239,1.789,0.429,3.201,1.455,4.141c0.916,0.831,2.655,0.872,4.338,0.912   c0.698,0.017,1.754,0.042,1.972,0.135l0.46,0.356l0.229,0.475l0.084,0.41l-0.086,11.563c-0.041,7.4-6.091,13.421-13.485,13.421   h-16.64c-7.436,0-13.484-6.018-13.484-13.416V41.523z" fill="#F87F14"/></g></svg>