<?xml version="1.0" ?><svg xmlns="http://www.w3.org/2000/svg" xmlns:xlink="http://www.w3.org/1999/xlink" version="1.1" viewBox="0 0 512 512" enable-background="new 0 0 512 512" xml:space="preserve"><g id="guides_1_"/><g id="outline"/><g id="icon"><path d="M426,36H86c-22.056,0-40,17.944-40,40v360c0,22.056,17.944,40,40,40h340c22.056,0,40-17.944,40-40V76   C466,53.944,448.056,36,426,36z"/><linearGradient id="SVGID_1_" gradientUnits="userSpaceOnUse" x1="256" y1="459.2575" x2="256" y2="31.569"><stop offset="0" style="stop-color:#7D2BE7"/><stop offset="1" style="stop-color:#02C1CD"/></linearGradient><path fill="url(#SVGID_1_)" d="M446,436c0,11-9,20-20,20H86c-11,0-20-9-20-20V96c0-11,9-20,20-20h340c11,0,20,9,20,20V436z"/><linearGradient id="SVGID_00000167378792639204438150000000715485465234311322_" gradientUnits="userSpaceOnUse" x1="66" y1="91" x2="446" y2="91"><stop offset="0" style="stop-color:#15ABD1"/><stop offset="0.51" style="stop-color:#89D5E8"/><stop offset="1" style="stop-color:#15ABD1"/></linearGradient><path fill="url(#SVGID_00000167378792639204438150000000715485465234311322_)" d="M426,76H86c-11,0-20,9-20,20v10c0-11,9-20,20-20   h340c11,0,20,9,20,20V96C446,85,437,76,426,76z"/><linearGradient id="SVGID_00000139998088482994400620000010786831808864878757_" gradientUnits="userSpaceOnUse" x1="66" y1="76" x2="446" y2="76"><stop offset="0" style="stop-color:#0B5998"/><stop offset="0.5" style="stop-color:#15ABD1"/><stop offset="1" style="stop-color:#0B5998"/></linearGradient><path fill="url(#SVGID_00000139998088482994400620000010786831808864878757_)" d="M426,56H86c-11,0-20,9-20,20v20c0-11,9-20,20-20   h340c11,0,20,9,20,20V76C446,65,437,56,426,56z"/><path fill="#FFFFFF" d="M348.448,315.522c-1.635,0-3.075,1.381-4.573,4.397c-16.914,34.297-46.127,58.564-79.932,58.564   c-39.089,0-63.295-35.286-63.295-84.033c0-82.573,46.008-130.316,86.418-130.316c18.883,0,30.415,11.867,30.415,30.751   c0,22.412-12.733,34.279-12.733,42.183c0,3.548,2.207,5.697,6.584,5.697c17.583,0,38.221-20.205,38.221-48.748   c0-27.676-24.088-48.018-64.497-48.018c-66.784,0-126.137,61.915-126.137,147.583c0,66.312,37.867,110.132,96.293,110.132   c62.013,0,97.87-61.699,97.87-81.726C353.082,317.554,350.814,315.522,348.448,315.522L348.448,315.522z"/></g></svg>