<?xml version="1.0" ?><svg style="enable-background:new 0 0 512 512;" version="1.1" viewBox="0 0 512 512" xml:space="preserve" xmlns="http://www.w3.org/2000/svg" xmlns:xlink="http://www.w3.org/1999/xlink"><style type="text/css">
	.st0{display:none;}
	.st1{fill:#ADD4EB;}
	.st2{fill:#0A2432;}
	.st3{fill:#ADD4EA;}
	.st4{fill:#ABD5EB;}
	.st5{fill:#A0D7F3;}
</style><g class="st0" id="Layer_1"/><g id="Layer_4"><rect class="st1" height="384" width="384" x="64" y="64"/><rect class="st2" height="337.9" width="337.9" x="87" y="87"/><path class="st3" d="M171.6,154.1c6.3-0.1,12.6,0.2,18.9-0.4c6.8-0.7,8.4,2.1,8.4,8.5c-0.2,44.1-0.2,88.2-0.1,132.2   c0,12.5-1.2,10.8,10.9,10.9c16.8,0.1,33.6,0.1,50.4-0.1c5.2-0.1,7.3,1.3,5.8,6.9c-1.4,5-2.2,10.2-2.9,15.4c-0.5,3.5-2.4,5.1-5.8,5   c-28.6-0.3-57.1,1-85.7-0.7c-3-5.4,0-10.8,0.1-16.1c1.4-42.4,0-84.8,0.6-127.2C172.4,177,171.7,165.6,171.6,154.1z"/><path class="st4" d="M289.5,270.3c0-18.1,0.1-36.2-0.1-54.3c-0.1-4.4,1.4-6.7,5.5-8.1c16.9-5.9,34.3-9.4,52.2-9.9   c4.4-0.1,6.4,1.6,6,5.9c0,0.5,0,1,0,1.6c-0.2,6,2.2,13.4-1,17.8c-4,5.6-10.7,2.5-16.7,2.7c-12.1,0.6-14.8,1.9-14.8,16.7   c0,27-0.2,54,0.1,81c0.1,7-2.3,9-9,9.1c-22.1,0.2-22.2,0.4-22.2-21.6c0-13.6,0-27.3,0-40.9C289.6,270.3,289.6,270.3,289.5,270.3z"/><path class="st5" d="M171.6,154.1c2.5,3.6,3.1,7.6,3.1,11.9c-0.1,46.2,0.1,92.3-0.2,138.5c0,9.2,0.7,18.5-2.5,27.4   c-4.5,0-3.9-3.5-3.9-5.7c-0.1-55.3,0.1-110.5,0.2-165.8C168.3,158.1,168.5,154.1,171.6,154.1z"/></g></svg>